<svg xmlns="http://www.w3.org/2000/svg" viewBox="0 0 24 24" aria-hidden="true" focusable="false" style="fill:#222;">
	<path d="M21.001,22c-0.339,0-0.67-0.172-0.857-0.484C18.439,18.688,15.396,17,12,17c-3.336,0-6.457,1.731-8.145,4.518 c-0.286,0.473-0.9,0.623-1.374,0.338c-0.472-0.286-0.624-0.901-0.337-1.373C4.192,17.101,7.968,15,12,15 c4.041,0,7.818,2.102,9.856,5.484c0.285,0.473,0.133,1.087-0.341,1.372C21.354,21.954,21.177,22,21.001,22z">
	</path>
	<path d="M11.996,12.993C8.69,12.993,6,10.303,6,6.997C6,3.69,8.69,1,11.996,1C15.307,1,18,3.69,18,6.997 C18,10.303,15.307,12.993,11.996,12.993z M11.996,3C9.83,3,8,4.83,8,6.997c0,2.166,1.83,3.996,3.996,3.996 c2.17,0,4.004-1.83,4.004-3.996C16,4.83,14.166,3,11.996,3z">
	</path>
</svg>
